<svg width="542" height="255" viewBox="0 0 542 255" fill="none" xmlns="http://www.w3.org/2000/svg">
<rect width="542" height="255" fill="#1F875C"/>
<path d="M166.328 62.704C160.312 62.704 155.917 62.0427 153.144 60.72C150.413 59.3973 149.048 56.9227 149.048 53.296C149.048 52.016 149.261 50.2027 149.688 47.856C152.632 49.0933 156.131 50.096 160.184 50.864C164.237 51.5893 167.416 51.952 169.72 51.952C171.341 49.0933 173.581 47.664 176.44 47.664C178.317 47.664 179.768 48.2613 180.792 49.456C181.859 50.608 182.392 52.1013 182.392 53.936C182.392 55.728 181.688 57.4133 180.28 58.992L178.04 77.36C177.656 80.6453 176.803 83.5893 175.48 86.192C174.2 88.7947 172.664 90.8427 170.872 92.336C167.245 95.3653 163.512 96.88 159.672 96.88C155.832 96.88 152.76 96.0267 150.456 94.32C148.152 92.656 147 90.6293 147 88.24C147 85.808 147.704 83.9093 149.112 82.544C150.52 81.136 152.163 80.432 154.04 80.432C155.96 80.432 157.731 81.0933 159.352 82.416C160.973 83.7387 162.211 85.7227 163.064 88.368L164.664 87.088C163.512 83.888 162.936 81.328 162.936 79.408C162.936 78.3413 163.341 75.888 164.152 72.048C164.963 68.208 165.688 65.0933 166.328 62.704ZM196.647 95.6C192.892 95.6 190.268 94.6827 188.775 92.848C187.282 91.0133 186.535 88.7093 186.535 85.936C186.535 83.12 187.004 79.28 187.943 74.416C188.882 69.552 189.351 66.032 189.351 63.856C189.351 61.68 188.903 59.9733 188.007 58.736C191.975 56.6453 195.324 55.6 198.055 55.6C199.804 55.6 201.063 55.9627 201.831 56.688C202.642 57.3707 203.047 58.5013 203.047 60.08C203.047 61.6587 202.386 65.5413 201.063 71.728C199.783 77.872 199.143 81.6693 199.143 83.12C199.143 84.5707 199.548 85.7227 200.359 86.576C201.17 87.3867 202.236 87.792 203.559 87.792C204.882 87.792 206.29 87.28 207.783 86.256C209.276 85.1893 210.492 83.696 211.431 81.776C212.028 78.32 213.202 72.8587 214.951 65.392L211.111 60.272C215.42 57.1573 219.516 55.6 223.399 55.6C225.319 55.6 226.684 55.9627 227.495 56.688C228.348 57.3707 228.775 58.4373 228.775 59.888C228.775 61.296 227.986 65.3707 226.407 72.112C224.871 78.8533 224.103 83.6533 224.103 86.512C224.103 89.328 224.764 91.312 226.087 92.464C223.698 94.5547 221.18 95.6 218.535 95.6C215.932 95.6 214.055 95.024 212.903 93.872C211.751 92.72 211.175 91.2053 211.175 89.328L210.535 89.008C209.127 91.056 207.164 92.6773 204.647 93.872C202.172 95.024 199.506 95.6 196.647 95.6ZM242.13 95.6C239.613 95.6 237.757 94.9387 236.562 93.616C235.367 92.2933 234.77 90.544 234.77 88.368C234.77 86.192 235.197 82.6507 236.05 77.744C236.946 72.8373 237.863 68.3573 238.802 64.304L235.474 59.184C239.698 56.7947 243.602 55.6 247.186 55.6C250.77 55.6 252.562 57.2213 252.562 60.464C252.562 62.5973 252.071 64.7733 251.09 66.992L251.73 67.312C256.295 59.504 262.098 55.6 269.138 55.6C274.301 55.6 276.882 58.1813 276.882 63.344C276.882 65.5627 276.242 69.3173 274.962 74.608C273.725 79.8987 273.106 83.888 273.106 86.576C273.106 89.264 273.554 91.2267 274.45 92.464C272.189 94.5547 269.799 95.6 267.282 95.6C262.375 95.6 259.922 92.9547 259.922 87.664C259.922 85.7013 260.562 82.3733 261.842 77.68C263.122 72.9867 263.762 69.936 263.762 68.528C263.762 66.608 263.037 65.648 261.586 65.648C260.391 65.648 259.026 66.1813 257.49 67.248C255.954 68.272 254.461 69.68 253.01 71.472C251.602 73.2213 250.407 75.4613 249.426 78.192C248.445 80.88 247.954 83.632 247.954 86.448C247.954 89.2213 248.402 91.2267 249.298 92.464C247.037 94.5547 244.647 95.6 242.13 95.6ZM295.046 76.08C295.046 78.256 295.643 80.0267 296.838 81.392C298.075 82.7147 299.59 83.376 301.382 83.376C303.814 83.376 305.99 82.224 307.91 79.92C308.635 76.1227 309.574 70.128 310.726 61.936C305.947 61.936 302.129 63.3227 299.27 66.096C296.454 68.8693 295.046 72.1973 295.046 76.08ZM312.006 100.336C310.001 103.024 307.483 105.136 304.454 106.672C301.425 108.251 298.225 109.04 294.854 109.04C291.526 109.04 288.838 108.4 286.79 107.12C284.785 105.883 283.782 104.197 283.782 102.064C283.782 99.9307 284.657 97.6907 286.406 95.344C288.369 98.2453 291.313 99.696 295.238 99.696C297.798 99.696 300.166 98.5867 302.342 96.368C304.561 94.192 306.033 90.992 306.758 86.768L306.118 86.448C303.089 90.8853 299.206 93.104 294.47 93.104C290.886 93.104 288.07 91.7173 286.022 88.944C283.974 86.1707 282.95 82.48 282.95 77.872C282.95 73.4347 284.166 69.3813 286.598 65.712C289.371 61.488 293.233 58.5653 298.182 56.944C300.913 56.048 303.515 55.6 305.99 55.6C308.465 55.6 310.555 55.7707 312.262 56.112C312.518 57.264 312.667 58.3093 312.71 59.248C314.715 57.8827 316.742 57.2 318.79 57.2C321.734 57.2 323.206 58.7147 323.206 61.744C323.206 64.7733 323.014 67.888 322.63 71.088C322.246 74.2453 321.649 77.6373 320.838 81.264C320.027 84.8907 318.854 88.3253 317.318 91.568C315.825 94.768 314.054 97.6907 312.006 100.336ZM335.911 54.192L332.327 49.072C337.66 45.9573 341.863 44.4 344.935 44.4C346.684 44.4 347.922 44.7627 348.647 45.488C349.372 46.1707 349.735 47.4933 349.735 49.456C349.735 51.376 348.775 56.8373 346.855 65.84C344.978 74.8427 344.039 81.1573 344.039 84.784C344.039 88.4107 344.7 90.9707 346.023 92.464C343.036 94.5547 340.327 95.6 337.895 95.6C335.463 95.6 333.671 94.8107 332.519 93.232C331.41 91.6107 330.855 89.392 330.855 86.576C330.855 83.76 331.644 78 333.223 69.296C334.802 60.592 335.698 55.5573 335.911 54.192ZM372.184 95.6C366.339 95.6 361.816 94.0853 358.616 91.056C355.459 88.0267 353.88 83.9307 353.88 78.768C353.88 71.8987 356.227 66.3307 360.92 62.064C365.656 57.7547 371.587 55.6 378.712 55.6C382.68 55.6 385.688 56.496 387.736 58.288C389.784 60.0373 390.808 62.3627 390.808 65.264C390.808 69.232 388.867 72.5387 384.984 75.184C381.144 77.7867 375.192 79.1093 367.128 79.152C367.256 81.8827 367.875 84.0373 368.984 85.616C370.093 87.152 371.48 87.92 373.144 87.92C374.808 87.92 376.237 87.3653 377.432 86.256C378.669 85.1467 379.288 83.3333 379.288 80.816C385.517 80.816 388.632 82.288 388.632 85.232C388.632 87.7493 387.096 90.1173 384.024 92.336C380.952 94.512 377.005 95.6 372.184 95.6ZM377.624 63.088C375.448 63.088 373.443 64.176 371.608 66.352C369.816 68.528 368.515 71.088 367.704 74.032C371.971 73.6907 375.171 72.7307 377.304 71.152C379.48 69.5307 380.568 67.824 380.568 66.032C380.568 65.1787 380.291 64.4747 379.736 63.92C379.224 63.3653 378.52 63.088 377.624 63.088Z" fill="white"/>
<path d="M176.28 136.152V139.416H192.984V136.152H176.28ZM176.28 127.896V131.096H192.984V127.896H176.28ZM168.856 122.52H200.728V144.792H168.856V122.52ZM165.656 147.608H202.84V153.88H165.656V147.608ZM163.992 157.528H204.12V164.056H163.992V157.528ZM187.608 153.112H195.352V173.144C195.352 176.664 194.712 178.52 192.216 179.608C189.848 180.696 186.648 180.76 182.232 180.76C181.912 178.648 180.824 175.832 179.864 173.912C182.552 174.04 185.56 174.04 186.392 173.976C187.352 173.912 187.608 173.72 187.608 172.952V153.112ZM168.28 167.192L173.592 163.608C176.344 166.104 179.736 169.688 181.4 172.056L175.64 176.152C174.232 173.72 170.904 169.944 168.28 167.192ZM159.512 134.808L166.232 137.624C161.56 145.496 154.072 153.944 147.352 159.192C146.84 157.528 144.92 153.176 143.768 151.32C149.4 147.352 155.672 141.016 159.512 134.808ZM157.784 120.728L165.08 123.672C160.792 129.624 154.264 135.896 148.248 139.8C147.416 138.072 145.624 134.936 144.408 133.336C149.4 130.264 155.096 125.016 157.784 120.728ZM153.176 149.08L160.28 141.976L160.6 142.168V180.76H153.176V149.08ZM209.816 161.432H268.12V167.704H209.816V161.432ZM243.352 163.544C247 170.904 255.32 173.4 269.976 173.72C268.376 175.32 266.456 178.52 265.624 180.696C248.92 179.544 240.856 175.384 235.8 164.632L243.352 163.544ZM246.808 159.32L249.944 154.968C254.104 155.864 259.928 157.72 263 159.064L259.736 163.928C256.792 162.52 251.096 160.472 246.808 159.32ZM232.152 140.504H269.144V145.816H232.152V140.504ZM253.4 136.344H260.632V149.656C260.632 152.728 259.992 154.2 257.752 155.032C255.448 155.864 252.44 155.864 248.28 155.864C247.96 154.072 247.064 151.832 246.232 150.296C248.728 150.36 251.544 150.36 252.312 150.296C253.08 150.296 253.4 150.104 253.4 149.4V136.344ZM209.048 139.672H226.968V145.688H209.048V139.672ZM223.192 120.6H230.168V157.464H223.192V120.6ZM211.992 122.456H218.392V130.456H227.16V136.344H211.992V122.456ZM235.992 147.864L241.112 144.92C243.352 146.776 245.976 149.464 247.128 151.448L241.688 154.648C240.728 152.728 238.232 149.848 235.992 147.864ZM234.52 130.072L238.68 128.472C241.304 130.072 244.44 132.632 245.976 134.488L241.688 136.152C240.216 134.36 237.144 131.8 234.52 130.072ZM241.048 127.704L244.632 125.848C247.896 127.384 251.8 129.944 253.784 131.928L249.944 133.976C248.152 131.992 244.312 129.368 241.048 127.704ZM260.12 123.672H261.336L262.552 123.48L266.52 125.4C260.952 135.192 248.92 139.096 235.288 140.824C234.776 139.416 233.432 137.304 232.408 136.088C244.568 134.936 255.768 131.608 260.12 124.504V123.672ZM248.92 120.6L255.192 122.008C250.136 126.744 243.224 130.008 233.688 132.632C232.92 131.224 231.256 129.176 229.976 128.216C238.872 126.424 245.336 123.736 248.92 120.6ZM247.512 123.672H262.104V127.832H241.816L247.512 123.672ZM212.888 142.808H219.608V146.008C219.608 149.016 218.776 155.416 214.488 159C213.208 157.976 210.328 156.504 208.664 155.736C212.312 152.856 212.888 148.056 212.888 145.816V142.808ZM234.584 155.416H242.2V161.24C242.2 168.984 238.104 177.688 212.44 180.888C211.608 179.096 209.688 176.28 208.28 174.616C231.128 171.928 234.584 166.04 234.584 161.048V155.416ZM296.6 144.024L305.816 146.264C301.592 156.312 295.896 167.576 291.16 174.936L284.056 172.696C288.664 164.952 293.848 153.176 296.6 144.024ZM276.632 170.328C288.728 169.944 307.48 169.048 324.248 168.216L324.056 175.704C307.608 176.856 289.816 177.816 277.656 178.456L276.632 170.328ZM309.016 158.168L316.504 154.712C322.136 161.624 328.152 170.712 331.224 176.856L323.288 181.08C320.6 174.936 314.392 165.208 309.016 158.168ZM289.816 122.136L298.584 124.568C294.488 134.68 287.768 144.6 281.24 150.744C279.576 149.144 275.864 146.328 273.752 145.048C280.408 139.8 286.488 131.032 289.816 122.136ZM315.608 122.2C319.384 129.752 326.68 138.712 332.568 144.088C330.456 145.688 327.512 148.76 326.04 150.808C320.024 144.344 312.664 134.232 307.928 125.336L315.608 122.2ZM338.392 129.752H395.736V137.112H338.392V129.752ZM366.424 139.48H374.232V180.76H366.424V139.48ZM348.632 146.84H388.184V154.072H356.312V175.064H348.632V146.84ZM384.856 146.84H392.664V166.808C392.664 170.328 391.896 172.312 389.4 173.464C386.904 174.552 383.448 174.616 378.648 174.616C378.328 172.504 377.176 169.56 376.216 167.64C379.16 167.768 382.616 167.768 383.512 167.768C384.536 167.704 384.856 167.448 384.856 166.68V146.84ZM358.936 120.536L366.872 122.328C362.2 138.072 354.2 154.008 340.504 163.544C339.48 161.624 337.496 158.488 336.088 156.76C348.12 148.824 355.544 133.976 358.936 120.536Z" fill="black"/>
</svg>
