<svg height="512" viewBox="0 0 64 64" width="512" xmlns="http://www.w3.org/2000/svg"><g id="Icons"><g><path d="m8 12h48v18h-48z" fill="#c80a50"/></g><g><g><path d="m14 27c-.552 0-1-.448-1-1v-8c0-.552.448-1 1-1h4c.552 0 1 .448 1 1s-.448 1-1 1h-3v7c0 .552-.448 1-1 1z" fill="#a00028"/></g><g><path d="m18 23h-4c-.552 0-1-.448-1-1s.448-1 1-1h4c.552 0 1 .448 1 1s-.448 1-1 1z" fill="#a00028"/></g><g><path d="m22 27c-.552 0-1-.448-1-1v-8c0-.552.448-1 1-1s1 .448 1 1v8c0 .552-.448 1-1 1z" fill="#a00028"/></g><g><path d="m30 27c-.373 0-.722-.208-.895-.553l-2.105-4.211v3.764c0 .552-.448 1-1 1s-1-.448-1-1v-8c0-.464.319-.867.77-.973.457-.104.917.111 1.125.526l2.105 4.211v-3.764c0-.552.448-1 1-1s1 .448 1 1v8c0 .464-.319.867-.77.973-.077.018-.154.027-.23.027z" fill="#a00028"/></g><g><path d="m34 27c-.552 0-1-.448-1-1v-8c0-.552.448-1 1-1s1 .448 1 1v8c0 .552-.448 1-1 1z" fill="#a00028"/></g><g><path d="m40.146 27h-.292c-1.574 0-2.854-1.28-2.854-2.854v-.146c0-.552.448-1 1-1s1 .448 1 1v.146c0 .471.383.854.854.854h.292c.471 0 .854-.383.854-.854 0-.326-.181-.619-.473-.765l-1.95-.974c-.973-.487-1.577-1.466-1.577-2.553 0-1.574 1.28-2.854 2.854-2.854h.292c1.574 0 2.854 1.28 2.854 2.854v.146c0 .552-.448 1-1 1s-1-.448-1-1v-.146c0-.471-.383-.854-.854-.854h-.292c-.471 0-.854.383-.854.854 0 .326.181.619.473.765l1.95.974c.973.487 1.577 1.466 1.577 2.553 0 1.574-1.28 2.854-2.854 2.854z" fill="#a00028"/></g><g><path d="m46 27c-.552 0-1-.448-1-1v-8c0-.552.448-1 1-1s1 .448 1 1v8c0 .552-.448 1-1 1z" fill="#a00028"/></g><g><path d="m50 23h-4c-.552 0-1-.448-1-1s.448-1 1-1h4c.552 0 1 .448 1 1s-.448 1-1 1z" fill="#a00028"/></g><g><path d="m50 27c-.552 0-1-.448-1-1v-8c0-.552.448-1 1-1s1 .448 1 1v8c0 .552-.448 1-1 1z" fill="#a00028"/></g></g><g><path d="m8 12h1v18h-1z" fill="#a00028"/></g><g><path d="m7 56h-2c-.552 0-1-.448-1-1v-46c0-.552.448-1 1-1h2c.552 0 1 .448 1 1v46c0 .552-.448 1-1 1z" fill="#fab400"/></g><g><path d="m55 12h1v18h-1z" fill="#a00028"/></g><g><path d="m59 56h-2c-.552 0-1-.448-1-1v-46c0-.552.448-1 1-1h2c.552 0 1 .448 1 1v46c0 .552-.448 1-1 1z" fill="#fab400"/></g><g><g><path d="m14 26c-.552 0-1-.448-1-1v-8c0-.552.448-1 1-1h4c.552 0 1 .448 1 1s-.448 1-1 1h-3v7c0 .552-.448 1-1 1z" fill="#f0f0f0"/></g><g><path d="m18 22h-4c-.552 0-1-.448-1-1s.448-1 1-1h4c.552 0 1 .448 1 1s-.448 1-1 1z" fill="#f0f0f0"/></g><g><path d="m22 26c-.552 0-1-.448-1-1v-8c0-.552.448-1 1-1s1 .448 1 1v8c0 .552-.448 1-1 1z" fill="#f0f0f0"/></g><g><path d="m30 26c-.373 0-.722-.208-.895-.553l-2.105-4.211v3.764c0 .552-.448 1-1 1s-1-.448-1-1v-8c0-.464.319-.867.77-.973.457-.105.917.111 1.125.526l2.105 4.211v-3.764c0-.552.448-1 1-1s1 .448 1 1v8c0 .464-.319.867-.77.973-.077.018-.154.027-.23.027z" fill="#f0f0f0"/></g><g><path d="m34 26c-.552 0-1-.448-1-1v-8c0-.552.448-1 1-1s1 .448 1 1v8c0 .552-.448 1-1 1z" fill="#f0f0f0"/></g><g><path d="m40.146 26h-.292c-1.574 0-2.854-1.28-2.854-2.854v-.146c0-.552.448-1 1-1s1 .448 1 1v.146c0 .471.383.854.854.854h.292c.471 0 .854-.383.854-.854 0-.326-.181-.619-.473-.765l-1.95-.974c-.973-.487-1.577-1.466-1.577-2.553 0-1.574 1.28-2.854 2.854-2.854h.292c1.574 0 2.854 1.28 2.854 2.854v.146c0 .552-.448 1-1 1s-1-.448-1-1v-.146c0-.471-.383-.854-.854-.854h-.292c-.471 0-.854.383-.854.854 0 .326.181.619.473.765l1.95.974c.973.487 1.577 1.466 1.577 2.553 0 1.574-1.28 2.854-2.854 2.854z" fill="#f0f0f0"/></g><g><path d="m46 26c-.552 0-1-.448-1-1v-8c0-.552.448-1 1-1s1 .448 1 1v8c0 .552-.448 1-1 1z" fill="#f0f0f0"/></g><g><path d="m50 22h-4c-.552 0-1-.448-1-1s.448-1 1-1h4c.552 0 1 .448 1 1s-.448 1-1 1z" fill="#f0f0f0"/></g><g><path d="m50 26c-.552 0-1-.448-1-1v-8c0-.552.448-1 1-1s1 .448 1 1v8c0 .552-.448 1-1 1z" fill="#f0f0f0"/></g></g><g><path d="m8 40h48v8h-48z" fill="#0a5078"/></g><g><path d="m8 44h1v4h-1z" fill="#00325a"/></g><g><path d="m55 40h1v4h-1z" fill="#00325a"/></g><g><path d="m8 40h4v4h-4z" fill="#f0f0f0"/></g><g><path d="m16 40h4v4h-4z" fill="#f0f0f0"/></g><g><path d="m24 40h4v4h-4z" fill="#f0f0f0"/></g><g><path d="m32 40h4v4h-4z" fill="#f0f0f0"/></g><g><path d="m40 40h4v4h-4z" fill="#f0f0f0"/></g><g><path d="m48 40h4v4h-4z" fill="#f0f0f0"/></g><g><path d="m12 44h4v4h-4z" fill="#f0f0f0"/></g><g><path d="m20 44h4v4h-4z" fill="#f0f0f0"/></g><g><path d="m28 44h4v4h-4z" fill="#f0f0f0"/></g><g><path d="m36 44h4v4h-4z" fill="#f0f0f0"/></g><g><path d="m44 44h4v4h-4z" fill="#f0f0f0"/></g><g><path d="m52 44h4v4h-4z" fill="#f0f0f0"/></g><g><path d="m8 40h1v4h-1z" fill="#d2d2d2"/></g><g><path d="m55 44h1v4h-1z" fill="#d2d2d2"/></g></g></svg>