<svg width="41" height="41" viewBox="0 0 41 41" fill="none" xmlns="http://www.w3.org/2000/svg">
<g clip-path="url(#clip0_529_1081)">
<path d="M40.2054 11.8628C40.1081 9.73389 39.77 8.28003 39.2756 7.00806C38.7736 5.67352 37.9862 4.46472 36.9688 3.46558C35.9699 2.44812 34.7608 1.66046 33.4263 1.15814C32.154 0.664062 30.7004 0.326233 28.5715 0.229492C26.4387 0.131836 25.7572 0.108643 20.3257 0.108643C14.8942 0.108643 14.2127 0.131836 12.0798 0.228882C9.95093 0.326233 8.49738 0.664368 7.2251 1.15875C5.89056 1.66077 4.68176 2.44812 3.68262 3.46558C2.66516 4.46442 1.8775 5.67322 1.37518 7.00775C0.881104 8.28003 0.543274 9.73389 0.446533 11.8625C0.348877 13.9957 0.325684 14.6768 0.325684 20.1083C0.325684 25.5402 0.348877 26.2216 0.446533 28.3545C0.543579 30.4831 0.881714 31.937 1.3761 33.2092C1.87811 34.5435 2.66547 35.7526 3.68292 36.7514C4.68176 37.7689 5.89087 38.5562 7.2254 39.0582C8.49738 39.5529 9.95123 39.8907 12.0801 39.9881C14.2133 40.0854 14.8945 40.1083 20.326 40.1083C25.7575 40.1083 26.439 40.0854 28.5718 39.9881C30.7007 39.8907 32.1543 39.5529 33.4266 39.0582C36.113 38.0194 38.2368 35.8957 39.2756 33.2092C39.7703 31.937 40.1081 30.4831 40.2054 28.3545C40.3025 26.2213 40.3257 25.5402 40.3257 20.1086C40.3257 14.6768 40.3025 13.9957 40.2054 11.8628ZM36.6053 28.1906C36.5165 30.1407 36.1906 31.1996 35.9168 31.9043C35.2439 33.6487 33.8654 35.0272 32.121 35.7001C31.4164 35.9738 30.3574 36.2997 28.4073 36.3885C26.2989 36.485 25.6663 36.5051 20.3257 36.5051C14.9848 36.5051 14.3525 36.485 12.2437 36.3885C10.2939 36.2997 9.23499 35.9738 8.53003 35.7001C7.6615 35.3793 6.87567 34.8682 6.23053 34.2038C5.56616 33.5587 5.05499 32.7731 4.73425 31.9043C4.46051 31.1996 4.13458 30.1407 4.04578 28.1906C3.94965 26.0818 3.9292 25.4492 3.9292 20.1089C3.9292 14.7684 3.94965 14.136 4.04578 12.027C4.13489 10.0769 4.46051 9.01794 4.73425 8.31329C5.05499 7.44446 5.56647 6.65863 6.23053 6.01349C6.87567 5.34912 7.6615 4.83795 8.53033 4.51752C9.23499 4.24347 10.2939 3.91785 12.244 3.82874C14.3528 3.7326 14.9854 3.71216 20.3257 3.71216H20.3254C25.6656 3.71216 26.2983 3.7326 28.4073 3.82904C30.3574 3.91785 31.4161 4.24377 32.121 4.51752C32.9896 4.83826 33.7754 5.34943 34.4205 6.01349C35.0849 6.65863 35.5961 7.44446 35.9165 8.31329C36.1906 9.01794 36.5165 10.0769 36.6053 12.027C36.7014 14.1357 36.7219 14.7684 36.7219 20.1086C36.7219 25.4492 36.7017 26.0815 36.6053 28.1906Z" fill="url(#paint0_linear_529_1081)"/>
<path d="M40.2054 11.8628C40.1081 9.73389 39.77 8.28003 39.2756 7.00806C38.7736 5.67352 37.9862 4.46472 36.9688 3.46558C35.9699 2.44812 34.7608 1.66046 33.4263 1.15814C32.154 0.664062 30.7004 0.326233 28.5715 0.229492C26.4387 0.131836 25.7572 0.108643 20.3257 0.108643C14.8942 0.108643 14.2127 0.131836 12.0798 0.228882C9.95093 0.326233 8.49738 0.664368 7.2251 1.15875C5.89056 1.66077 4.68176 2.44812 3.68262 3.46558C2.66516 4.46442 1.8775 5.67322 1.37518 7.00775C0.881104 8.28003 0.543274 9.73389 0.446533 11.8625C0.348877 13.9957 0.325684 14.6768 0.325684 20.1083C0.325684 25.5402 0.348877 26.2216 0.446533 28.3545C0.543579 30.4831 0.881714 31.937 1.3761 33.2092C1.87811 34.5435 2.66547 35.7526 3.68292 36.7514C4.68176 37.7689 5.89087 38.5562 7.2254 39.0582C8.49738 39.5529 9.95123 39.8907 12.0801 39.9881C14.2133 40.0854 14.8945 40.1083 20.326 40.1083C25.7575 40.1083 26.439 40.0854 28.5718 39.9881C30.7007 39.8907 32.1543 39.5529 33.4266 39.0582C36.113 38.0194 38.2368 35.8957 39.2756 33.2092C39.7703 31.937 40.1081 30.4831 40.2054 28.3545C40.3025 26.2213 40.3257 25.5402 40.3257 20.1086C40.3257 14.6768 40.3025 13.9957 40.2054 11.8628ZM36.6053 28.1906C36.5165 30.1407 36.1906 31.1996 35.9168 31.9043C35.2439 33.6487 33.8654 35.0272 32.121 35.7001C31.4164 35.9738 30.3574 36.2997 28.4073 36.3885C26.2989 36.485 25.6663 36.5051 20.3257 36.5051C14.9848 36.5051 14.3525 36.485 12.2437 36.3885C10.2939 36.2997 9.23499 35.9738 8.53003 35.7001C7.6615 35.3793 6.87567 34.8682 6.23053 34.2038C5.56616 33.5587 5.05499 32.7731 4.73425 31.9043C4.46051 31.1996 4.13458 30.1407 4.04578 28.1906C3.94965 26.0818 3.9292 25.4492 3.9292 20.1089C3.9292 14.7684 3.94965 14.136 4.04578 12.027C4.13489 10.0769 4.46051 9.01794 4.73425 8.31329C5.05499 7.44446 5.56647 6.65863 6.23053 6.01349C6.87567 5.34912 7.6615 4.83795 8.53033 4.51752C9.23499 4.24347 10.2939 3.91785 12.244 3.82874C14.3528 3.7326 14.9854 3.71216 20.3257 3.71216H20.3254C25.6656 3.71216 26.2983 3.7326 28.4073 3.82904C30.3574 3.91785 31.4161 4.24377 32.121 4.51752C32.9896 4.83826 33.7754 5.34943 34.4205 6.01349C35.0849 6.65863 35.5961 7.44446 35.9165 8.31329C36.1906 9.01794 36.5165 10.0769 36.6053 12.027C36.7014 14.1357 36.7219 14.7684 36.7219 20.1086C36.7219 25.4492 36.7017 26.0815 36.6053 28.1906Z" fill="black" fill-opacity="0.2"/>
<path d="M20.3253 9.83813C14.6533 9.83813 10.0552 14.4365 10.0552 20.1085C10.0552 25.7805 14.6533 30.3786 20.3253 30.3786C25.9976 30.3786 30.5956 25.7805 30.5956 20.1085C30.5956 14.4365 25.9976 9.83813 20.3253 9.83813ZM20.3253 26.7751C16.6436 26.7748 13.6587 23.7902 13.659 20.1082C13.659 16.4266 16.6436 13.4417 20.3256 13.4417C24.0075 13.442 26.9921 16.4266 26.9921 20.1082C26.9921 23.7902 24.0072 26.7751 20.3253 26.7751Z" fill="url(#paint1_linear_529_1081)"/>
<path d="M33.4017 9.43268C33.4017 10.7581 32.3271 11.8326 31.0018 11.8326C29.6761 11.8326 28.6016 10.7581 28.6016 9.43268C28.6016 8.10699 29.6761 7.03247 31.0018 7.03247C32.3271 7.03247 33.4017 8.10699 33.4017 9.43268Z" fill="url(#paint2_linear_529_1081)"/>
</g>
<defs>
<linearGradient id="paint0_linear_529_1081" x1="0.325684" y1="46.1086" x2="36.9689" y2="3.46505" gradientUnits="userSpaceOnUse">
<stop stop-color="#E1AA1D"/>
<stop offset="0.5" stop-color="#FF0100"/>
<stop offset="1" stop-color="#D800B9"/>
</linearGradient>
<linearGradient id="paint1_linear_529_1081" x1="13.0633" y1="27.3705" x2="27.5876" y2="12.8462" gradientUnits="userSpaceOnUse">
<stop stop-color="#FF6400"/>
<stop offset="0.5" stop-color="#FF0100"/>
<stop offset="1" stop-color="#FD0056"/>
</linearGradient>
<linearGradient id="paint2_linear_529_1081" x1="29.3046" y1="11.1296" x2="32.6987" y2="7.73552" gradientUnits="userSpaceOnUse">
<stop stop-color="#F30072"/>
<stop offset="1" stop-color="#E50097"/>
</linearGradient>
<clipPath id="clip0_529_1081">
<rect x="0.325684" y="0.108643" width="40" height="40" rx="10" fill="white"/>
</clipPath>
</defs>
</svg>
