<svg width="41" height="41" viewBox="0 0 41 41" fill="none" xmlns="http://www.w3.org/2000/svg">
<g clip-path="url(#clip0_529_1085)">
<path d="M36.6143 0.108643H4.03705C1.98732 0.108643 0.325684 1.77028 0.325684 3.82001V36.3973C0.325684 38.447 1.98732 40.1086 4.03705 40.1086H36.6143C38.6641 40.1086 40.3257 38.447 40.3257 36.3973V3.82001C40.3257 1.77028 38.6641 0.108643 36.6143 0.108643Z" fill="url(#paint0_linear_529_1085)"/>
<path d="M32.8052 17.7633C32.6598 15.2133 31.3052 12.9155 29.1893 11.2223C26.9166 9.40871 23.7893 8.29053 20.3257 8.29053C13.4211 8.29053 7.82568 12.7337 7.82568 18.2246C7.82568 21.7905 10.1893 24.9201 13.7348 26.6723C15.2846 27.4299 16.9569 27.9056 18.6734 28.0769C18.853 28.0969 19.0173 28.1873 19.1302 28.3284C19.2431 28.4694 19.2955 28.6496 19.2757 28.8292L19.0166 31.1769C19.0045 31.2975 19.0248 31.4191 19.0754 31.5293C19.126 31.6394 19.205 31.7341 19.3043 31.8035C19.4036 31.873 19.5196 31.9147 19.6404 31.9244C19.7613 31.9341 19.8825 31.9114 19.9916 31.8587C25.1643 29.3587 28.2598 26.7928 30.1075 24.5678C30.4416 24.1633 31.5393 22.6269 31.762 22.2223C32.237 21.3757 32.5607 20.4528 32.7189 19.4951C32.769 19.2474 32.8046 18.9969 32.8257 18.7451C32.8366 18.4177 32.8297 18.0899 32.8052 17.7633ZM16.4416 21.5178H13.8734C13.7036 21.5172 13.5409 21.4495 13.4209 21.3294C13.3008 21.2094 13.2331 21.0467 13.2325 20.8769V16.0496C13.2319 15.9651 13.2483 15.8813 13.2807 15.8032C13.3131 15.7251 13.3609 15.6544 13.4211 15.5951C13.5106 15.5053 13.6247 15.4442 13.749 15.4196C13.8733 15.3949 14.0021 15.4077 14.1191 15.4564C14.236 15.5052 14.3358 15.5876 14.4058 15.6932C14.4758 15.7989 14.5128 15.9229 14.512 16.0496V20.2383H16.4302C16.5994 20.2389 16.7615 20.3063 16.8812 20.426C17.0008 20.5456 17.0683 20.7077 17.0689 20.8769C17.0692 20.9609 17.0529 21.0442 17.0209 21.122C16.9889 21.1997 16.942 21.2704 16.8826 21.3299C16.8233 21.3895 16.7528 21.4367 16.6751 21.469C16.5975 21.5012 16.5143 21.5178 16.4302 21.5178H16.4416ZM18.962 21.0178C18.9614 21.1502 18.9086 21.2771 18.8149 21.3707C18.7213 21.4643 18.5945 21.5172 18.462 21.5178H18.1757C18.0431 21.5178 17.9159 21.4651 17.8221 21.3714C17.7284 21.2776 17.6757 21.1504 17.6757 21.0178V15.911C17.6757 15.8453 17.6886 15.7803 17.7137 15.7196C17.7389 15.659 17.7757 15.6039 17.8221 15.5574C17.8686 15.511 17.9237 15.4742 17.9843 15.449C18.045 15.4239 18.11 15.411 18.1757 15.411H18.4552C18.5877 15.4116 18.7145 15.4645 18.8081 15.5581C18.9018 15.6517 18.9546 15.7786 18.9552 15.911L18.962 21.0178ZM24.9052 20.8519C24.9053 21.0246 24.8383 21.1907 24.7183 21.3149C24.5983 21.4392 24.4347 21.5119 24.262 21.5178C24.1002 21.5152 23.9453 21.4519 23.828 21.3405C23.8052 21.3223 22.9461 20.2042 22.2166 19.2633C21.6711 18.561 21.1984 17.9473 21.1984 17.9473V20.8769C21.1988 21.0011 21.1631 21.1227 21.0955 21.2268C21.0279 21.331 20.9314 21.4131 20.8178 21.4633C20.7042 21.5135 20.5784 21.5294 20.4559 21.5092C20.3334 21.489 20.2194 21.4336 20.128 21.3496C20.062 21.2898 20.0093 21.2169 19.9733 21.1354C19.9372 21.054 19.9187 20.9659 19.9189 20.8769V16.0769C19.9168 15.9081 19.9795 15.745 20.094 15.6211C20.2086 15.4972 20.3664 15.422 20.5348 15.411C20.6301 15.4094 20.7246 15.429 20.8114 15.4683C20.8982 15.5076 20.9753 15.5656 21.037 15.6383C21.0643 15.6701 22.3848 17.3883 23.128 18.3655C23.4234 18.7473 23.628 19.0155 23.628 19.0155V16.061C23.6291 15.892 23.6968 15.7302 23.8163 15.6107C23.9358 15.4912 24.0976 15.4235 24.2666 15.4223C24.3505 15.4223 24.4335 15.4389 24.511 15.471C24.5885 15.5031 24.6589 15.5501 24.7182 15.6094C24.7775 15.6687 24.8245 15.7391 24.8566 15.8166C24.8887 15.8941 24.9052 15.9771 24.9052 16.061V20.8519ZM29.053 17.836C29.2223 17.836 29.3848 17.9033 29.5045 18.023C29.6243 18.1428 29.6916 18.3052 29.6916 18.4746C29.6916 18.644 29.6243 18.8064 29.5045 18.9262C29.3848 19.046 29.2223 19.1133 29.053 19.1133H27.1439V20.2496H29.0598C29.147 20.2444 29.2344 20.2571 29.3165 20.2869C29.3986 20.3167 29.4738 20.363 29.5374 20.4229C29.601 20.4828 29.6517 20.5551 29.6863 20.6353C29.721 20.7156 29.7388 20.802 29.7388 20.8894C29.7388 20.9768 29.721 21.0632 29.6863 21.1434C29.6517 21.2237 29.601 21.296 29.5374 21.3559C29.4738 21.4158 29.3986 21.4621 29.3165 21.4919C29.2344 21.5217 29.147 21.5344 29.0598 21.5292H26.4961C26.3266 21.5286 26.1641 21.4608 26.0444 21.3406C25.9247 21.2205 25.8575 21.0578 25.8575 20.8883V16.0496C25.8581 15.8804 25.9256 15.7183 26.0452 15.5987C26.1649 15.4791 26.3269 15.4116 26.4961 15.411H29.053C29.1402 15.4058 29.2275 15.4185 29.3097 15.4483C29.3918 15.4781 29.467 15.5244 29.5306 15.5843C29.5942 15.6442 29.6449 15.7165 29.6795 15.7967C29.7141 15.8769 29.732 15.9634 29.732 16.0508C29.732 16.1381 29.7141 16.2246 29.6795 16.3048C29.6449 16.385 29.5942 16.4573 29.5306 16.5172C29.467 16.5772 29.3918 16.6234 29.3097 16.6532C29.2275 16.683 29.1402 16.6957 29.053 16.6905H27.1439V17.8269L29.053 17.836Z" fill="white"/>
</g>
<defs>
<linearGradient id="paint0_linear_529_1085" x1="20.3257" y1="1.4541" x2="20.3257" y2="35.87" gradientUnits="userSpaceOnUse">
<stop stop-color="#46FF00"/>
<stop offset="1" stop-color="#36C700"/>
</linearGradient>
<clipPath id="clip0_529_1085">
<rect width="40" height="40" fill="white" transform="translate(0.325684 0.108643)"/>
</clipPath>
</defs>
</svg>
