<svg width="164" height="65" viewBox="0 0 164 65" fill="none" xmlns="http://www.w3.org/2000/svg">
<path d="M124.79 14.8348L122.078 14.8348C121.428 14.8348 120.901 15.3618 120.901 16.0118L120.901 37.3118C120.901 37.9618 121.428 38.4888 122.078 38.4888L124.79 38.4889C125.102 38.4889 125.401 38.3649 125.622 38.1442C125.843 37.9235 125.967 37.6241 125.967 37.3119L125.967 16.0119C125.967 15.3617 125.44 14.8347 124.79 14.8348Z" fill="#A44E3F"/>
<path d="M124.79 38.4889C125.102 38.4889 125.401 38.365 125.622 38.1442C125.843 37.9235 125.967 37.6241 125.967 37.3119L125.967 16.012C125.967 15.3619 125.44 14.8349 124.79 14.8349L123.521 14.8349L123.521 38.4889L124.79 38.4889Z" fill="#87363E"/>
<path d="M131.349 35.3027L124.698 35.3027L123.521 36.4798L122.344 35.3027L115.693 35.3027C115.043 35.3026 114.516 35.8297 114.516 36.4798L114.516 43.5925C114.516 46.8798 116.031 49.7629 118.897 51.9301C120.998 53.5184 123.092 54.1629 123.18 54.1896C123.403 54.2568 123.64 54.2568 123.862 54.1896C123.95 54.1629 126.044 53.5184 128.145 51.9301C128.632 51.5614 129.081 51.1723 129.489 50.7637C131.482 48.7706 132.526 46.3206 132.526 43.5925L132.526 36.4798C132.526 36.1676 132.402 35.8682 132.181 35.6475C131.96 35.4268 131.661 35.3027 131.349 35.3027Z" fill="#EBF0FA"/>
<path d="M123.862 54.1894C123.95 54.1627 126.044 53.5183 128.145 51.9299C128.632 51.5612 129.081 51.1721 129.489 50.7636C131.482 48.7704 132.526 46.3205 132.526 43.5923L132.526 36.4797C132.526 36.1675 132.402 35.8681 132.181 35.6474C131.961 35.4266 131.661 35.3026 131.349 35.3027L124.698 35.3027L123.522 36.479L123.522 54.2397C123.637 54.2397 123.751 54.2229 123.862 54.1894Z" fill="#DCE1EB"/>
<path d="M129.847 8.07748L117.022 8.07754L117.022 11.2213C117.022 13.4075 118.794 15.1797 120.98 15.1797L125.889 15.1797C128.075 15.1797 129.847 13.4075 129.847 11.2213L129.847 8.07748Z" fill="white"/>
<path d="M129.52 14.8525C128.55 15.8224 127.26 16.3566 125.889 16.3566L120.98 16.3566C119.608 16.3566 118.319 15.8224 117.349 14.8525C116.379 13.8826 115.845 12.5929 115.845 11.2212L115.845 8.07747C115.845 7.4275 116.372 6.90048 117.022 6.90043L129.847 6.90043C130.497 6.90037 131.024 7.42739 131.024 8.07747L131.024 11.2212C131.024 12.593 130.49 13.8826 129.52 14.8525ZM118.198 9.25451L118.198 11.2213C118.198 11.9641 118.488 12.6627 119.013 13.188C119.538 13.7134 120.237 14.0026 120.98 14.0026L125.889 14.0026C126.631 14.0026 127.33 13.7133 127.855 13.188C128.381 12.6627 128.67 11.9642 128.67 11.2213L128.67 9.25451L118.198 9.25451Z" fill="#384949"/>
<path d="M129.846 6.90053H123.521L123.521 9.25461L128.669 9.2546L128.669 11.2214C128.669 11.9642 128.38 12.6628 127.855 13.1881C127.329 13.7135 126.631 14.0027 125.888 14.0027H123.521L123.521 16.3568L125.888 16.3568C127.26 16.3568 128.549 15.8226 129.519 14.8527C130.489 13.8828 131.023 12.5931 131.023 11.2214V8.07768C131.024 7.42748 130.497 6.90047 129.846 6.90053Z" fill="#283939"/>
<path d="M122.344 35.3027L122.344 41.8597C122.344 42.5097 122.871 43.0367 123.521 43.0367C123.846 43.0367 124.14 42.905 124.353 42.692C124.566 42.4791 124.698 42.1847 124.698 41.8597L124.698 35.3027L122.344 35.3027Z" fill="#DCE1EB"/>
<path d="M124.353 42.692C124.566 42.479 124.698 42.1847 124.698 41.8597L124.698 35.3027L123.521 35.3027L123.521 43.0367C123.846 43.0365 124.14 42.9048 124.353 42.692Z" fill="#CDD2E1"/>
<path d="M12.4057 33.5486C8.64568 33.5486 5.89902 33.1353 4.16568 32.3086C2.45902 31.482 1.60568 29.9353 1.60568 27.6686C1.60568 26.8686 1.73902 25.7353 2.00568 24.2686C3.84568 25.042 6.03235 25.6686 8.56568 26.1486C11.099 26.602 13.0857 26.8286 14.5257 26.8286C15.539 25.042 16.939 24.1486 18.7257 24.1486C19.899 24.1486 20.8057 24.522 21.4457 25.2686C22.1124 25.9886 22.4457 26.922 22.4457 28.0686C22.4457 29.1886 22.0057 30.242 21.1257 31.2286L19.7257 42.7086C19.4857 44.762 18.9524 46.602 18.1257 48.2286C17.3257 49.8553 16.3657 51.1353 15.2457 52.0686C12.979 53.962 10.6457 54.9086 8.24568 54.9086C5.84568 54.9086 3.92568 54.3753 2.48568 53.3086C1.04568 52.2686 0.325684 51.002 0.325684 49.5086C0.325684 47.9886 0.765684 46.802 1.64568 45.9486C2.52568 45.0686 3.55235 44.6286 4.72568 44.6286C5.92568 44.6286 7.03235 45.042 8.04568 45.8686C9.05902 46.6953 9.83235 47.9353 10.3657 49.5886L11.3657 48.7886C10.6457 46.7886 10.2857 45.1886 10.2857 43.9886C10.2857 43.322 10.539 41.7886 11.0457 39.3886C11.5524 36.9886 12.0057 35.042 12.4057 33.5486ZM31.3551 54.1086C29.0084 54.1086 27.3684 53.5353 26.4351 52.3886C25.5017 51.242 25.0351 49.802 25.0351 48.0686C25.0351 46.3086 25.3284 43.9086 25.9151 40.8686C26.5017 37.8286 26.7951 35.6286 26.7951 34.2686C26.7951 32.9086 26.5151 31.842 25.9551 31.0686C28.4351 29.762 30.5284 29.1086 32.2351 29.1086C33.3284 29.1086 34.1151 29.3353 34.5951 29.7886C35.1017 30.2153 35.3551 30.922 35.3551 31.9086C35.3551 32.8953 34.9417 35.322 34.1151 39.1886C33.3151 43.0286 32.9151 45.402 32.9151 46.3086C32.9151 47.2153 33.1684 47.9353 33.6751 48.4686C34.1817 48.9753 34.8484 49.2286 35.6751 49.2286C36.5017 49.2286 37.3817 48.9086 38.3151 48.2686C39.2484 47.602 40.0084 46.6686 40.5951 45.4686C40.9684 43.3086 41.7017 39.8953 42.7951 35.2286L40.3951 32.0286C43.0884 30.082 45.6484 29.1086 48.0751 29.1086C49.2751 29.1086 50.1284 29.3353 50.6351 29.7886C51.1684 30.2153 51.4351 30.882 51.4351 31.7886C51.4351 32.6686 50.9417 35.2153 49.9551 39.4286C48.9951 43.642 48.5151 46.642 48.5151 48.4286C48.5151 50.1886 48.9284 51.4286 49.7551 52.1486C48.2617 53.4553 46.6884 54.1086 45.0351 54.1086C43.4084 54.1086 42.2351 53.7486 41.5151 53.0286C40.7951 52.3086 40.4351 51.362 40.4351 50.1886L40.0351 49.9886C39.1551 51.2686 37.9284 52.282 36.3551 53.0286C34.8084 53.7486 33.1417 54.1086 31.3551 54.1086ZM59.7819 54.1086C58.2086 54.1086 57.0486 53.6953 56.3019 52.8686C55.5553 52.042 55.1819 50.9486 55.1819 49.5886C55.1819 48.2286 55.4486 46.0153 55.9819 42.9486C56.5419 39.882 57.1153 37.082 57.7019 34.5486L55.6219 31.3486C58.2619 29.8553 60.7019 29.1086 62.9419 29.1086C65.1819 29.1086 66.3019 30.122 66.3019 32.1486C66.3019 33.482 65.9953 34.842 65.3819 36.2286L65.7819 36.4286C68.6353 31.5486 72.2619 29.1086 76.6619 29.1086C79.8886 29.1086 81.5019 30.722 81.5019 33.9486C81.5019 35.3353 81.1019 37.682 80.3019 40.9886C79.5286 44.2953 79.1419 46.7886 79.1419 48.4686C79.1419 50.1486 79.4219 51.3753 79.9819 52.1486C78.5686 53.4553 77.0753 54.1086 75.5019 54.1086C72.4353 54.1086 70.9019 52.4553 70.9019 49.1486C70.9019 47.922 71.3019 45.842 72.1019 42.9086C72.9019 39.9753 73.3019 38.0686 73.3019 37.1886C73.3019 35.9886 72.8486 35.3886 71.9419 35.3886C71.1953 35.3886 70.3419 35.722 69.3819 36.3886C68.4219 37.0286 67.4886 37.9086 66.5819 39.0286C65.7019 40.122 64.9553 41.522 64.3419 43.2286C63.7286 44.9086 63.4219 46.6286 63.4219 48.3886C63.4219 50.122 63.7019 51.3753 64.2619 52.1486C62.8486 53.4553 61.3553 54.1086 59.7819 54.1086ZM92.8544 41.9086C92.8544 43.2686 93.2278 44.3753 93.9744 45.2286C94.7478 46.0553 95.6944 46.4686 96.8144 46.4686C98.3344 46.4686 99.6944 45.7486 100.894 44.3086C101.348 41.9353 101.934 38.1886 102.654 33.0686C99.6678 33.0686 97.2811 33.9353 95.4944 35.6686C93.7344 37.402 92.8544 39.482 92.8544 41.9086ZM103.454 57.0686C102.201 58.7486 100.628 60.0686 98.7344 61.0286C96.8411 62.0153 94.8411 62.5086 92.7344 62.5086C90.6544 62.5086 88.9744 62.1086 87.6944 61.3086C86.4411 60.5353 85.8144 59.482 85.8144 58.1486C85.8144 56.8153 86.3611 55.4153 87.4544 53.9486C88.6811 55.762 90.5211 56.6686 92.9744 56.6686C94.5744 56.6686 96.0544 55.9753 97.4144 54.5886C98.8011 53.2286 99.7211 51.2286 100.174 48.5886L99.7744 48.3886C97.8811 51.162 95.4544 52.5486 92.4944 52.5486C90.2544 52.5486 88.4944 51.682 87.2144 49.9486C85.9344 48.2153 85.2944 45.9086 85.2944 43.0286C85.2944 40.2553 86.0544 37.722 87.5744 35.4286C89.3078 32.7886 91.7211 30.962 94.8144 29.9486C96.5211 29.3886 98.1478 29.1086 99.6944 29.1086C101.241 29.1086 102.548 29.2153 103.614 29.4286C103.774 30.1486 103.868 30.802 103.894 31.3886C105.148 30.5353 106.414 30.1086 107.694 30.1086C109.534 30.1086 110.454 31.0553 110.454 32.9486C110.454 34.842 110.334 36.7886 110.094 38.7886C109.854 40.762 109.481 42.882 108.974 45.1486C108.468 47.4153 107.734 49.562 106.774 51.5886C105.841 53.5886 104.734 55.4153 103.454 57.0686ZM149.659 54.1086C146.006 54.1086 143.179 53.162 141.179 51.2686C139.206 49.3753 138.219 46.8153 138.219 43.5886C138.219 39.2953 139.686 35.8153 142.619 33.1486C145.579 30.4553 149.286 29.1086 153.739 29.1086C156.219 29.1086 158.099 29.6686 159.379 30.7886C160.659 31.882 161.299 33.3353 161.299 35.1486C161.299 37.6286 160.086 39.6953 157.659 41.3486C155.259 42.9753 151.539 43.802 146.499 43.8286C146.579 45.5353 146.966 46.882 147.659 47.8686C148.353 48.8286 149.219 49.3086 150.259 49.3086C151.299 49.3086 152.193 48.962 152.939 48.2686C153.713 47.5753 154.099 46.442 154.099 44.8686C157.993 44.8686 159.939 45.7886 159.939 47.6286C159.939 49.202 158.979 50.682 157.059 52.0686C155.139 53.4286 152.673 54.1086 149.659 54.1086ZM153.059 33.7886C151.699 33.7886 150.446 34.4686 149.299 35.8286C148.179 37.1886 147.366 38.7886 146.859 40.6286C149.526 40.4153 151.526 39.8153 152.859 38.8286C154.219 37.8153 154.899 36.7486 154.899 35.6286C154.899 35.0953 154.726 34.6553 154.379 34.3086C154.059 33.962 153.619 33.7886 153.059 33.7886Z" fill="white"/>
<path d="M4.0625 11.2812V26.5833H22.276V11.2812H4.0625Z" fill="#A55A3C"/>
<path d="M22.3438 10.4688H21.5312C21.3158 10.4688 21.1091 10.5544 20.9567 10.7067C20.8044 10.8591 20.7188 11.0658 20.7188 11.2812V24.2812C20.7188 24.4967 20.6331 24.7034 20.4808 24.8558C20.3284 25.0081 20.1217 25.0938 19.9062 25.0938H6.09375C5.87826 25.0938 5.6716 25.0081 5.51923 24.8558C5.36685 24.7034 5.28125 24.4967 5.28125 24.2812V11.2812C5.28125 11.0658 5.19565 10.8591 5.04327 10.7067C4.8909 10.5544 4.68424 10.4688 4.46875 10.4688H3.65625C3.44076 10.4688 3.2341 10.5544 3.08173 10.7067C2.92935 10.8591 2.84375 11.0658 2.84375 11.2812V26.7188C2.84375 26.9342 2.92935 27.1409 3.08173 27.2933C3.2341 27.4456 3.44076 27.5312 3.65625 27.5312H22.3438C22.559 27.5306 22.7653 27.4448 22.9176 27.2926C23.0698 27.1403 23.1556 26.934 23.1562 26.7188V11.2812C23.1562 11.0658 23.0706 10.8591 22.9183 10.7067C22.7659 10.5544 22.5592 10.4688 22.3438 10.4688Z" fill="#FFA50A"/>
<path d="M21.6452 10.4688H21.2452C21.1401 10.4688 21.0361 10.4894 20.939 10.5297C20.842 10.5699 20.7538 10.6288 20.6795 10.7031C20.6052 10.7774 20.5462 10.8656 20.506 10.9627C20.4658 11.0598 20.4451 11.1638 20.4452 11.2689V24.0707C20.4452 24.2829 20.3609 24.4864 20.2108 24.6364C20.0608 24.7865 19.8573 24.8708 19.6451 24.8708H6.044C5.83181 24.8708 5.62831 24.7865 5.47827 24.6364C5.32822 24.4864 5.24394 24.2829 5.24394 24.0707V11.2689C5.24394 11.1638 5.22325 11.0598 5.18305 10.9627C5.14284 10.8656 5.08391 10.7774 5.00962 10.7031C4.93533 10.6288 4.84713 10.5699 4.75006 10.5297C4.65299 10.4895 4.54895 10.4688 4.44388 10.4688H3.64381C3.53875 10.4688 3.4347 10.4894 3.33763 10.5297C3.24056 10.5699 3.15236 10.6288 3.07807 10.7031C3.00378 10.7774 2.94485 10.8656 2.90464 10.9627C2.86444 11.0598 2.84375 11.1638 2.84375 11.2689V26.071C2.84375 26.2832 2.92804 26.4867 3.07808 26.6367C3.22812 26.7868 3.43162 26.8711 3.64381 26.8711H21.6452C21.8573 26.8705 22.0604 26.786 22.2103 26.636C22.3602 26.4861 22.4447 26.283 22.4453 26.071V11.2689C22.4453 11.1638 22.4246 11.0597 22.3844 10.9627C22.3442 10.8656 22.2853 10.7774 22.211 10.7031C22.1367 10.6288 22.0485 10.5699 21.9514 10.5297C21.8544 10.4894 21.7503 10.4688 21.6452 10.4688Z" fill="#FEC502"/>
<path d="M23.1562 16.9688H2.84375C2.39502 16.9688 2.03125 17.3325 2.03125 17.7812V19.4062C2.03125 19.855 2.39502 20.2188 2.84375 20.2188H23.1562C23.605 20.2188 23.9688 19.855 23.9688 19.4062V17.7812C23.9688 17.3325 23.605 16.9688 23.1562 16.9688Z" fill="#F6F4E6"/>
<path d="M15.0312 14.9375H10.9688C10.7444 14.9375 10.5625 15.1194 10.5625 15.3438V21.8438C10.5625 22.0681 10.7444 22.25 10.9688 22.25H15.0312C15.2556 22.25 15.4375 22.0681 15.4375 21.8438V15.3438C15.4375 15.1194 15.2556 14.9375 15.0312 14.9375Z" fill="#FEC502"/>
<path d="M14.0156 17.7812C14.0158 17.5981 13.9664 17.4183 13.8728 17.2609C13.7791 17.1035 13.6447 16.9744 13.4836 16.8872C13.3225 16.8 13.1409 16.7579 12.9579 16.7655C12.7749 16.7731 12.5974 16.83 12.4441 16.9303C12.2908 17.0305 12.1675 17.1703 12.0872 17.3349C12.0069 17.4996 11.9726 17.6828 11.9879 17.8653C12.0033 18.0478 12.0677 18.2228 12.1743 18.3717C12.281 18.5206 12.4259 18.6379 12.5937 18.7111V20.2187C12.5937 20.3265 12.6366 20.4298 12.7127 20.506C12.7889 20.5822 12.8923 20.625 13 20.625C13.1077 20.625 13.2111 20.5822 13.2873 20.506C13.3634 20.4298 13.4062 20.3265 13.4062 20.2187V18.7111C13.5873 18.6322 13.7413 18.5022 13.8496 18.337C13.9578 18.1719 14.0155 17.9787 14.0156 17.7812Z" fill="#F6F4E6"/>
<path d="M14.2187 17.7813C14.2197 17.5576 14.1591 17.338 14.0435 17.1465C13.928 16.955 13.762 16.799 13.5637 16.6956C13.3654 16.5921 13.1425 16.5452 12.9193 16.56C12.6962 16.5749 12.4814 16.6508 12.2985 16.7795C12.1156 16.9083 11.9717 17.0848 11.8824 17.2899C11.7932 17.495 11.7621 17.7207 11.7926 17.9423C11.8231 18.1638 11.914 18.3727 12.0553 18.5461C12.1966 18.7195 12.3829 18.8506 12.5937 18.9252V20.2188C12.5937 20.3265 12.6365 20.4299 12.7127 20.5061C12.7889 20.5823 12.8922 20.6251 13 20.6251C13.1077 20.6251 13.2111 20.5823 13.2873 20.5061C13.3634 20.4299 13.4062 20.3265 13.4062 20.2188V18.9252C13.6432 18.8417 13.8485 18.687 13.994 18.4822C14.1395 18.2773 14.218 18.0325 14.2187 17.7813ZM13 18.1876C12.9196 18.1876 12.8411 18.1637 12.7743 18.1191C12.7075 18.0744 12.6554 18.011 12.6247 17.9368C12.5939 17.8625 12.5859 17.7809 12.6015 17.702C12.6172 17.6232 12.6559 17.5509 12.7127 17.494C12.7695 17.4372 12.8419 17.3985 12.9207 17.3829C12.9995 17.3672 13.0812 17.3752 13.1555 17.406C13.2297 17.4367 13.2931 17.4888 13.3378 17.5556C13.3824 17.6224 13.4062 17.701 13.4062 17.7813C13.4062 17.889 13.3633 17.9923 13.2872 18.0685C13.211 18.1447 13.1077 18.1875 13 18.1876Z" fill="#363838"/>
<path d="M6.21299 14.6502L8.65049 12.2127C8.72697 12.1381 8.82981 12.0965 8.93671 12.0972C9.0436 12.0978 9.14594 12.1406 9.22152 12.2161C9.29711 12.2917 9.33986 12.3941 9.3405 12.501C9.34113 12.6079 9.29961 12.7107 9.22493 12.7872L6.78743 15.2247C6.71097 15.2995 6.60809 15.3411 6.50114 15.3405C6.39418 15.3399 6.29178 15.2972 6.21615 15.2215C6.14051 15.1459 6.09776 15.0435 6.09717 14.9365C6.09658 14.8296 6.1382 14.7267 6.21299 14.6502Z" fill="#363838"/>
<path d="M9.05674 13.8377L9.86924 13.0252C9.94572 12.9506 10.0486 12.909 10.1555 12.9097C10.2624 12.9103 10.3647 12.9531 10.4403 13.0286C10.5159 13.1042 10.5586 13.2066 10.5592 13.3135C10.5599 13.4204 10.5184 13.5232 10.4437 13.5997L9.63118 14.4122C9.55472 14.487 9.45184 14.5286 9.34489 14.528C9.23793 14.5274 9.13553 14.4847 9.0599 14.409C8.98427 14.3334 8.94151 14.231 8.94092 14.124C8.94033 14.0171 8.98195 13.9142 9.05674 13.8377Z" fill="#363838"/>
<path d="M2.84375 12.9062C2.9241 12.9062 3.00264 12.9301 3.06945 12.9747C3.13626 13.0194 3.18833 13.0828 3.21908 13.157C3.24982 13.2313 3.25787 13.313 3.24219 13.3918C3.22652 13.4706 3.18783 13.5429 3.13101 13.5998C3.0742 13.6566 3.00181 13.6953 2.92301 13.7109C2.8442 13.7266 2.76252 13.7186 2.68828 13.6878C2.61405 13.6571 2.5506 13.605 2.50597 13.5382C2.46133 13.4714 2.4375 13.3928 2.4375 13.3125C2.4375 13.2048 2.4803 13.1014 2.55649 13.0252C2.63267 12.9491 2.73601 12.9062 2.84375 12.9062Z" fill="#363838"/>
<path d="M23.5625 16.6374V11.2812C23.5621 10.9581 23.4336 10.6483 23.2051 10.4199C22.9767 10.1914 22.6669 10.0629 22.3438 10.0625H21.5312C21.28 10.0633 21.0352 10.1418 20.8304 10.2873C20.6256 10.4327 20.4708 10.638 20.3874 10.875H5.61264C5.52918 10.638 5.37442 10.4327 5.1696 10.2873C4.96479 10.1418 4.71997 10.0633 4.46875 10.0625H3.65625C3.33313 10.0629 3.02334 10.1914 2.79485 10.4199C2.56637 10.6483 2.43785 10.9581 2.4375 11.2812V12.0938C2.4375 12.2015 2.4803 12.3048 2.55649 12.381C2.63267 12.4572 2.73601 12.5 2.84375 12.5C2.95149 12.5 3.05483 12.4572 3.13101 12.381C3.2072 12.3048 3.25 12.2015 3.25 12.0938V11.2812C3.25007 11.1735 3.2929 11.0702 3.36907 10.9941C3.44524 10.9179 3.54853 10.8751 3.65625 10.875H4.46875C4.57647 10.8751 4.67976 10.9179 4.75593 10.9941C4.8321 11.0702 4.87493 11.1735 4.875 11.2812V16.5625H3.25V14.5312C3.25 14.4235 3.2072 14.3202 3.13101 14.244C3.05483 14.1678 2.95149 14.125 2.84375 14.125C2.73601 14.125 2.63267 14.1678 2.55649 14.244C2.4803 14.3202 2.4375 14.4235 2.4375 14.5312V16.6374C2.20055 16.7208 1.99524 16.8756 1.84976 17.0804C1.70429 17.2852 1.62577 17.53 1.625 17.7812V19.4062C1.62577 19.6575 1.70429 19.9023 1.84977 20.1071C1.99524 20.3119 2.20055 20.4667 2.4375 20.5501V26.7188C2.43785 27.0419 2.56637 27.3517 2.79485 27.5801C3.02334 27.8086 3.33313 27.9371 3.65625 27.9375H22.3438C22.6669 27.9371 22.9767 27.8086 23.2051 27.5801C23.4336 27.3517 23.5621 27.0419 23.5625 26.7188V20.5501C23.7994 20.4667 24.0048 20.3119 24.1502 20.1071C24.2957 19.9023 24.3742 19.6575 24.375 19.4062V17.7812C24.3742 17.53 24.2957 17.2852 24.1502 17.0804C24.0048 16.8756 23.7994 16.7208 23.5625 16.6374ZM21.5312 10.875H22.3438C22.4515 10.8751 22.5548 10.9179 22.6309 10.9941C22.7071 11.0702 22.7499 11.1735 22.75 11.2812V16.5625H21.125V11.2812C21.1251 11.1735 21.1679 11.0702 21.2441 10.9941C21.3202 10.9179 21.4235 10.8751 21.5312 10.875ZM5.6875 11.6875H20.3125V16.5625H15.8438V15.3438C15.8435 15.1283 15.7578 14.9218 15.6055 14.7695C15.4532 14.6172 15.2467 14.5315 15.0312 14.5312H10.9688C10.7533 14.5315 10.5468 14.6172 10.3945 14.7695C10.2422 14.9218 10.1565 15.1283 10.1562 15.3438V16.5625H5.6875V11.6875ZM5.6875 20.625H10.1562V21.8438C10.1565 22.0592 10.2422 22.2657 10.3945 22.418C10.5468 22.5703 10.7533 22.656 10.9688 22.6562H15.0312C15.2467 22.656 15.4532 22.5703 15.6055 22.418C15.7578 22.2657 15.8435 22.0592 15.8438 21.8438V20.625H20.3125V24.2812C20.3124 24.389 20.2696 24.4923 20.1934 24.5684C20.1173 24.6446 20.014 24.6874 19.9062 24.6875H6.09375C5.98603 24.6874 5.88274 24.6446 5.80657 24.5684C5.7304 24.4923 5.68757 24.389 5.6875 24.2812V20.625ZM15.0314 16.9697L15.0319 20.2158L15.0312 20.2188L15.0318 20.2217L15.0321 21.8438H10.9688V15.3438H15.0312L15.0314 16.9678L15.0312 16.9688L15.0314 16.9697ZM2.4375 17.7812C2.43757 17.6735 2.4804 17.5702 2.55657 17.4941C2.63274 17.4179 2.73603 17.3751 2.84375 17.375H10.1562V19.8125H2.84375C2.73603 19.8124 2.63274 19.7696 2.55657 19.6934C2.4804 19.6173 2.43757 19.514 2.4375 19.4062V17.7812ZM22.3438 27.125H3.65625C3.54853 27.1249 3.44524 27.0821 3.36907 27.0059C3.2929 26.9298 3.25007 26.8265 3.25 26.7188V20.625H4.875V24.2812C4.87535 24.6044 5.00387 24.9142 5.23235 25.1426C5.46084 25.3711 5.77063 25.4996 6.09375 25.5H19.9062C20.2294 25.4996 20.5392 25.3711 20.7676 25.1426C20.9961 24.9142 21.1246 24.6044 21.125 24.2812V20.625H22.75V26.7188C22.7499 26.8265 22.7071 26.9298 22.6309 27.0059C22.5548 27.0821 22.4515 27.1249 22.3438 27.125ZM23.5625 19.4062C23.5624 19.514 23.5196 19.6173 23.4434 19.6934C23.3673 19.7696 23.264 19.8124 23.1562 19.8125H15.8438V17.375H23.1562C23.264 17.3751 23.3673 17.4179 23.4434 17.4941C23.5196 17.5702 23.5624 17.6735 23.5625 17.7812V19.4062Z" fill="#363838"/>
<g clip-path="url(#clip0_529_1031)">
<path d="M1.85107 27.5126L1.86876 27.4801C2.82641 25.7757 3.32484 23.8992 3.32518 21.997V20.6876L4.01433 21.9028C4.77284 23.241 5.16776 24.7165 5.16781 26.2126L5.97231 24.9353C6.65326 23.8547 7.01056 22.6389 7.01045 21.4026C7.01042 20.0841 6.60407 18.7905 5.83485 17.6599L4.79929 16.1376C6.02606 16.7277 7.04992 17.5984 7.76326 18.6581C8.47659 19.7179 8.85306 20.9275 8.85308 22.1598V25.8876L11.8013 18.7376V21.7575C11.8013 23.1912 12.1798 24.6052 12.9069 25.8876L13.6439 21.0126L13.7335 21.1965C14.4039 22.5762 14.7495 24.0616 14.7495 25.5626L15.2242 24.9776C16.114 23.8789 16.5923 22.5624 16.5921 21.2121C16.5922 20.4352 16.4338 19.6646 16.1245 18.9371L15.4866 17.4376C17.3743 19.1024 18.4348 21.3603 18.4348 23.7146V24.5876L19.5061 17.7382C19.6177 17.0244 20.0186 16.3703 20.6345 15.8969C21.2505 15.4234 22.04 15.1626 22.8571 15.1626C22.3994 15.4653 22.0279 15.8579 21.7721 16.3092C21.5162 16.7604 21.383 17.2581 21.383 17.7626V24.9126L22.8571 21.6626L23.9627 27.5126H1.85107Z" fill="#428E16"/>
<path d="M13.5703 27.5125H23.9628L23.278 23.8897C22.7985 24.7117 22.137 25.4405 21.3326 26.0331L20.646 26.5375L20.2775 19.0625L19.6595 22.15C19.3355 23.7696 18.8009 25.3509 18.0663 26.8625L17.3293 21.9875V22.3798C17.3293 23.3772 17.0269 24.3566 16.4533 25.2162C15.8797 26.0759 15.0558 26.7847 14.0671 27.2691L13.5703 27.5125Z" fill="#27630B"/>
<path d="M11.1051 22.9584L11.0645 22.6376L8.85336 25.8876L7.74778 20.0376V21.5924C7.74769 22.0715 7.70283 22.5498 7.61364 23.0224C7.45823 23.8441 7.16446 24.6407 6.74207 25.3858L5.53662 27.5126H12.7089C11.8516 26.098 11.3073 24.5524 11.1051 22.9584Z" fill="#27630B"/>
<path d="M2.85889 27.5125H4.95949L3.69397 23.6125C3.69341 24.9471 3.4102 26.2697 2.85889 27.5125Z" fill="#27630B"/>
<g clip-path="url(#clip1_529_1031)">
<path d="M18.416 24.5173L15.5039 21.8953L14.5594 22.9443L17.4715 25.5663L18.416 24.5173Z" fill="#6E6E6E"/>
<path d="M14.5596 22.9438L13.3842 24.2492C12.7136 24.994 12.8591 26.4649 13 27.2047C13.3101 27.2786 13.2202 26.8874 13.5727 27.2047C13.65 27.0016 12.913 26.9394 13 27.2047C13.7416 27.2507 15.6339 27.5988 16.2922 26.8676L17.4676 25.5622L14.5596 22.9438Z" fill="#A8A89E"/>
<path d="M21.3281 17.6433L15.0741 24.5891C14.8422 24.8466 14.8075 25.1933 14.9964 25.3634C15.1853 25.5335 15.5264 25.4627 15.7583 25.2052L22.0124 18.2594L21.3281 17.6433Z" fill="#994C14"/>
<rect x="21.5146" y="15.5364" width="3.38996" height="1.69059" transform="rotate(42 21.5146 15.5364)" fill="#757575"/>
</g>
</g>
<defs>
<clipPath id="clip0_529_1031">
<rect width="23.5857" height="20.8" fill="white" transform="translate(1.11426 10.9375)"/>
</clipPath>
<clipPath id="clip1_529_1031">
<rect width="19.8714" height="14.1143" fill="white" transform="translate(8.91406 14.2803)"/>
</clipPath>
</defs>
</svg>
