<svg width="1359" height="129" viewBox="0 0 1359 129" fill="none" xmlns="http://www.w3.org/2000/svg">
<g filter="url(#filter0_d_1113_7678)">
<rect width="1230" height="115" transform="translate(62)" fill="url(#paint0_linear_1113_7678)"/>
<g clip-path="url(#clip0_1113_7678)">
<rect x="448" y="28" width="456" height="60" rx="27" fill="url(#paint1_linear_1113_7678)"/>
</g>
</g>
<path fill-rule="evenodd" clip-rule="evenodd" d="M60.973 115C76.1111 115 88.3829 89.2564 88.3829 57.5C88.3829 25.7436 76.1111 0 60.973 0C52.3369 0 44.6336 8.3785 39.6095 21.472C34.6033 18.7159 28.4528 16.526 23.5 18.4633C13.6585 22.3128 10.4469 28.1764 6.99995 35.344C1.99848 45.7443 -0.734291 61.8195 4.1329 72.584C9.00009 83.3486 14.7725 92.6416 23.5 96.0091C28.4171 97.9064 34.4896 95.816 39.4622 93.1406C44.4823 106.456 52.252 115 60.973 115Z" fill="url(#paint2_linear_1113_7678)"/>
<path d="M1320.15 57.5C1320.15 89.2564 1307.88 115 1292.74 115C1277.6 115 1265.33 89.2564 1265.33 57.5C1265.33 25.7436 1277.6 0 1292.74 0C1307.88 0 1320.15 25.7436 1320.15 57.5Z" fill="url(#paint3_linear_1113_7678)"/>
<path d="M1311 28.6429C1311 28.6429 1326.22 15.4668 1336.38 19.3723C1346.23 23.1524 1349.44 28.9104 1352.88 35.9489C1357.89 46.1618 1360.62 61.9473 1355.75 72.5179C1350.88 83.0886 1345.11 92.2141 1336.38 95.521C1326.18 99.3873 1311 86.3901 1311 86.3901V28.6429Z" fill="url(#paint4_linear_1113_7678)"/>
<path d="M604.912 52.08H627.136V55.224H604.912V52.08ZM629.248 49.152H650.752V51.504H629.248V49.152ZM638.464 45.072H641.32V55.272H638.464V45.072ZM647.152 42.768L648.976 44.856C644.104 45.84 637.144 46.296 631.264 46.392C631.192 45.768 630.904 44.784 630.664 44.208C636.472 44.064 643.192 43.584 647.152 42.768ZM637.48 49.968L639.808 51C637.576 53.664 633.904 56.016 630.4 57.24C630.016 56.592 629.224 55.56 628.624 55.032C631.984 54.048 635.608 52.08 637.48 49.968ZM642.28 50.04C644.224 52.104 647.992 53.904 651.544 54.768C650.896 55.344 650.08 56.472 649.648 57.192C646.048 56.064 642.328 53.712 640.096 50.976L642.28 50.04ZM644.68 45.456L647.872 46.224C647.08 47.52 646.24 48.792 645.616 49.656L643.144 48.912C643.696 47.928 644.344 46.488 644.68 45.456ZM632.488 46.752L634.96 45.84C635.632 46.704 636.4 47.904 636.712 48.72L634.12 49.728C633.832 48.936 633.136 47.664 632.488 46.752ZM632.296 55.68H647.992V65.112H645.088V57.84H635.056V65.208H632.296V55.68ZM633.376 59.088H646.672V60.96H633.376V59.088ZM633.376 62.28H646.672V64.44H633.376V62.28ZM638.56 57H641.296V63.744H638.56V57ZM662.488 42.624H665.392V46.56H662.488V42.624ZM653.848 45.144H674.368V49.704H671.584V47.088H656.536V49.704H653.848V45.144ZM660.328 49.56V50.592H667.648V49.56H660.328ZM657.664 47.976H670.504V52.176H657.664V47.976ZM656.032 43.416L658.6 42.744C659.2 43.416 659.848 44.376 660.184 45.048L657.544 45.888C657.28 45.216 656.608 44.16 656.032 43.416ZM669.52 42.648L672.496 43.344C671.752 44.376 670.936 45.288 670.312 45.912L667.96 45.24C668.488 44.496 669.184 43.416 669.52 42.648ZM659.032 56.88V57.744H669.184V56.88H659.032ZM659.032 59.208V60.12H669.184V59.208H659.032ZM659.032 54.528V55.416H669.184V54.528H659.032ZM656.296 52.992H672.04V61.656H656.296V52.992ZM659.968 61.56L662.728 62.616C660.904 63.84 657.832 64.776 655.336 65.328C654.832 64.728 653.8 63.648 653.2 63.168C655.72 62.88 658.528 62.328 659.968 61.56ZM665.272 62.928L667.504 61.368C670.024 62.064 673.024 63 674.776 63.648L671.752 65.184C670.312 64.56 667.768 63.648 665.272 62.928ZM687.904 45.504C686.032 48.576 682.36 51.888 678.328 54.024C677.968 53.304 677.152 52.224 676.528 51.624C680.8 49.584 684.544 45.744 686.2 42.552H689.32C691.792 46.608 695.608 49.776 699.544 51.288C698.8 52.056 698.152 53.04 697.624 53.928C693.784 51.984 689.848 48.624 687.904 45.504ZM690.568 51.408H693.568V65.16H690.568V51.408ZM682.288 51.528H685.24V54.504C685.24 57.912 684.76 62.208 680.032 65.16C679.528 64.536 678.4 63.576 677.632 63.12C681.856 60.6 682.288 57.216 682.288 54.432V51.528ZM712.552 61.56H720.832V64.104H712.552V61.56ZM711.208 54.936H722.224V65.04H719.44V57.48H713.848V65.136H711.208V54.936ZM710.368 43.752H721.36V46.392H710.368V43.752ZM720.016 43.752H722.704C722.704 43.752 722.68 44.448 722.656 44.784C722.536 49.8 722.368 51.888 721.768 52.656C721.264 53.28 720.736 53.472 719.968 53.568C719.32 53.664 718.216 53.664 717.04 53.664C716.968 52.824 716.656 51.72 716.2 51C717.208 51.096 718.192 51.096 718.648 51.096C718.984 51.096 719.224 51.048 719.416 50.832C719.776 50.424 719.92 48.696 720.016 44.16V43.752ZM713.8 44.832H716.632C716.272 48.888 715.336 52.272 711.088 54.288C710.752 53.616 709.984 52.608 709.384 52.128C712.984 50.568 713.536 47.928 713.8 44.832ZM704.32 42.648L706.816 43.584C705.832 45.408 704.728 47.544 703.792 48.888L701.872 48.048C702.736 46.632 703.768 44.328 704.32 42.648ZM707.08 45.48L709.408 46.536C707.68 49.296 705.328 52.632 703.504 54.72L701.848 53.784C703.624 51.6 705.832 48.072 707.08 45.48ZM700.624 48.336L701.992 46.368C703.264 47.472 704.752 48.984 705.376 50.088L703.888 52.32C703.312 51.168 701.848 49.488 700.624 48.336ZM706.36 51.216L708.256 50.424C709.192 52.032 710.104 54.144 710.392 55.536L708.352 56.448C708.088 55.056 707.272 52.872 706.36 51.216ZM700.6 53.208C702.808 53.136 706.048 53.016 709.216 52.872L709.192 55.152C706.24 55.368 703.168 55.56 700.84 55.728L700.6 53.208ZM706.888 57.192L708.904 56.544C709.504 57.912 710.128 59.712 710.392 60.912L708.28 61.656C708.04 60.456 707.416 58.608 706.888 57.192ZM701.632 56.736L704.008 57.144C703.768 59.448 703.24 61.848 702.544 63.384C702.04 63.072 700.96 62.568 700.36 62.328C701.056 60.912 701.44 58.776 701.632 56.736ZM704.32 54.48H706.84V65.184H704.32V54.48Z" fill="black"/>
<defs>
<filter id="filter0_d_1113_7678" x="58" y="0" width="1238" height="129" filterUnits="userSpaceOnUse" color-interpolation-filters="sRGB">
<feFlood flood-opacity="0" result="BackgroundImageFix"/>
<feColorMatrix in="SourceAlpha" type="matrix" values="0 0 0 0 0 0 0 0 0 0 0 0 0 0 0 0 0 0 127 0" result="hardAlpha"/>
<feOffset dy="10"/>
<feGaussianBlur stdDeviation="2"/>
<feComposite in2="hardAlpha" operator="out"/>
<feColorMatrix type="matrix" values="0 0 0 0 0 0 0 0 0 0 0 0 0 0 0 0 0 0 0.25 0"/>
<feBlend mode="normal" in2="BackgroundImageFix" result="effect1_dropShadow_1113_7678"/>
<feBlend mode="normal" in="SourceGraphic" in2="effect1_dropShadow_1113_7678" result="shape"/>
</filter>
<linearGradient id="paint0_linear_1113_7678" x1="615" y1="0" x2="615" y2="115" gradientUnits="userSpaceOnUse">
<stop stop-color="#1A5400"/>
<stop offset="0.470079" stop-color="#297E00"/>
<stop offset="1" stop-color="#184E00"/>
</linearGradient>
<linearGradient id="paint1_linear_1113_7678" x1="460.436" y1="66.9256" x2="911.379" y2="59.3027" gradientUnits="userSpaceOnUse">
<stop stop-color="#FFF0D0"/>
<stop offset="1" stop-color="#FFF0D0" stop-opacity="0.72"/>
</linearGradient>
<linearGradient id="paint2_linear_1113_7678" x1="33.5" y1="20.5734" x2="38.5968" y2="91.7405" gradientUnits="userSpaceOnUse">
<stop stop-color="#C1932C"/>
<stop offset="0.424286" stop-color="#CEAA39"/>
<stop offset="1" stop-color="#C19229"/>
</linearGradient>
<linearGradient id="paint3_linear_1113_7678" x1="1292.74" y1="0" x2="1292.74" y2="115" gradientUnits="userSpaceOnUse">
<stop stop-color="#C4992F"/>
<stop offset="0.490079" stop-color="#CEAA39"/>
<stop offset="1" stop-color="#C49733"/>
</linearGradient>
<linearGradient id="paint4_linear_1113_7678" x1="1334.65" y1="18.6487" x2="1334.65" y2="96.2394" gradientUnits="userSpaceOnUse">
<stop stop-color="#C4992F"/>
<stop offset="0.490079" stop-color="#CEAA39"/>
<stop offset="1" stop-color="#C49733"/>
</linearGradient>
<clipPath id="clip0_1113_7678">
<rect x="448" y="28" width="456" height="60" rx="27" fill="white"/>
</clipPath>
</defs>
</svg>
