<svg width="1359" height="123" viewBox="0 0 1359 123" fill="none" xmlns="http://www.w3.org/2000/svg">
<g filter="url(#filter0_d_1088_6859)">
<rect width="1230" height="109" transform="translate(62)" fill="url(#paint0_linear_1088_6859)"/>
<g clip-path="url(#clip0_1088_6859)">
<rect x="448" y="25" width="456" height="60" rx="27" fill="url(#paint1_linear_1088_6859)"/>
</g>
</g>
<path fill-rule="evenodd" clip-rule="evenodd" d="M60.9731 109C76.1111 109 88.383 84.5995 88.383 54.5C88.383 24.4005 76.1111 0 60.9731 0C52.3369 0 44.6336 7.94137 39.6096 20.3518C34.6033 17.7395 28.4529 15.6638 23.5001 17.5C13.6585 21.1487 10.4469 26.7063 7.00001 33.5C1.99855 43.3577 -0.73423 58.5941 4.13296 68.7971C9.00015 79 14.7726 87.8082 23.5001 91C28.4172 92.7983 34.4897 90.817 39.4622 88.2811C44.4823 100.902 52.2521 109 60.9731 109Z" fill="url(#paint2_linear_1088_6859)"/>
<path d="M1320.15 55.5C1320.15 86.1518 1307.88 111 1292.74 111C1277.6 111 1265.33 86.1518 1265.33 55.5C1265.33 24.8482 1277.6 0 1292.74 0C1307.88 0 1320.15 24.8482 1320.15 55.5Z" fill="url(#paint3_linear_1088_6859)"/>
<path d="M1311 27.6466C1311 27.6466 1326.22 14.9288 1336.38 18.6985C1346.23 22.3471 1349.44 27.9048 1352.88 34.6985C1357.89 44.5562 1360.62 59.7926 1355.75 69.9955C1350.88 80.1985 1345.11 89.0067 1336.38 92.1985C1326.18 95.9303 1311 83.3852 1311 83.3852V27.6466Z" fill="url(#paint4_linear_1088_6859)"/>
<path d="M604.912 52.08H627.136V55.224H604.912V52.08ZM629.248 49.152H650.752V51.504H629.248V49.152ZM638.464 45.072H641.32V55.272H638.464V45.072ZM647.152 42.768L648.976 44.856C644.104 45.84 637.144 46.296 631.264 46.392C631.192 45.768 630.904 44.784 630.664 44.208C636.472 44.064 643.192 43.584 647.152 42.768ZM637.48 49.968L639.808 51C637.576 53.664 633.904 56.016 630.4 57.24C630.016 56.592 629.224 55.56 628.624 55.032C631.984 54.048 635.608 52.08 637.48 49.968ZM642.28 50.04C644.224 52.104 647.992 53.904 651.544 54.768C650.896 55.344 650.08 56.472 649.648 57.192C646.048 56.064 642.328 53.712 640.096 50.976L642.28 50.04ZM644.68 45.456L647.872 46.224C647.08 47.52 646.24 48.792 645.616 49.656L643.144 48.912C643.696 47.928 644.344 46.488 644.68 45.456ZM632.488 46.752L634.96 45.84C635.632 46.704 636.4 47.904 636.712 48.72L634.12 49.728C633.832 48.936 633.136 47.664 632.488 46.752ZM632.296 55.68H647.992V65.112H645.088V57.84H635.056V65.208H632.296V55.68ZM633.376 59.088H646.672V60.96H633.376V59.088ZM633.376 62.28H646.672V64.44H633.376V62.28ZM638.56 57H641.296V63.744H638.56V57ZM662.488 42.624H665.392V46.56H662.488V42.624ZM653.848 45.144H674.368V49.704H671.584V47.088H656.536V49.704H653.848V45.144ZM660.328 49.56V50.592H667.648V49.56H660.328ZM657.664 47.976H670.504V52.176H657.664V47.976ZM656.032 43.416L658.6 42.744C659.2 43.416 659.848 44.376 660.184 45.048L657.544 45.888C657.28 45.216 656.608 44.16 656.032 43.416ZM669.52 42.648L672.496 43.344C671.752 44.376 670.936 45.288 670.312 45.912L667.96 45.24C668.488 44.496 669.184 43.416 669.52 42.648ZM659.032 56.88V57.744H669.184V56.88H659.032ZM659.032 59.208V60.12H669.184V59.208H659.032ZM659.032 54.528V55.416H669.184V54.528H659.032ZM656.296 52.992H672.04V61.656H656.296V52.992ZM659.968 61.56L662.728 62.616C660.904 63.84 657.832 64.776 655.336 65.328C654.832 64.728 653.8 63.648 653.2 63.168C655.72 62.88 658.528 62.328 659.968 61.56ZM665.272 62.928L667.504 61.368C670.024 62.064 673.024 63 674.776 63.648L671.752 65.184C670.312 64.56 667.768 63.648 665.272 62.928ZM686.608 44.76H698.176V47.376H686.608V44.76ZM685.168 49.416H699.232V52.08H685.168V49.416ZM685.696 54.24H698.992V56.904H685.696V54.24ZM690.88 42.6H693.736V50.88H690.88V42.6ZM693.736 51.792H696.592V61.944C696.592 63.408 696.304 64.2 695.344 64.632C694.384 65.064 693.016 65.136 691.192 65.136C691.096 64.296 690.712 63.072 690.328 62.28C691.504 62.328 692.824 62.328 693.232 62.304C693.616 62.304 693.736 62.232 693.736 61.896V51.792ZM686.536 58.2L688.672 56.88C689.728 57.936 691 59.448 691.576 60.504L689.296 61.992C688.792 60.936 687.568 59.352 686.536 58.2ZM676.624 55.416C678.976 54.888 682.48 53.904 685.792 52.968L686.176 55.488C683.152 56.448 679.864 57.432 677.32 58.176L676.624 55.416ZM680.944 42.624H683.584V65.16H680.944V42.624ZM677.776 43.872L680.176 44.28C679.864 47.448 679.288 50.784 678.424 52.944C677.992 52.584 676.96 51.936 676.384 51.648C677.152 49.704 677.56 46.704 677.776 43.872ZM678.424 47.16H685.576V49.896H677.896L678.424 47.16ZM701.56 43.776H722.44V45.648H701.56V43.776ZM703.336 46.392H720.904V48.096H703.336V46.392ZM715.672 50.328V51.384H718.72V50.328H715.672ZM710.44 50.328V51.384H713.392V50.328H710.44ZM705.256 50.328V51.384H708.136V50.328H705.256ZM702.712 48.744H721.408V52.968H702.712V48.744ZM710.488 42.624H713.344V47.28H710.488V42.624ZM706.912 57.384V58.224H717.28V57.384H706.912ZM706.912 59.64V60.504H717.28V59.64H706.912ZM706.912 55.176V55.968H717.28V55.176H706.912ZM704.128 53.64H720.208V61.992H704.128V53.64ZM713.32 63.288L715.768 61.944C718.36 62.568 721.432 63.384 723.232 64.008L719.824 65.28C718.432 64.68 715.936 63.912 713.32 63.288ZM708.184 61.848L710.632 63C708.568 63.912 705.352 64.752 702.88 65.208C702.4 64.656 701.464 63.696 700.84 63.24C703.456 62.976 706.456 62.472 708.184 61.848ZM735.352 48.984V50.976H739.288V48.984H735.352ZM732.664 47.112H742.144V52.872H732.664V47.112ZM732.52 55.848V58.488H734.392V55.848H732.52ZM730.192 53.904H736.84V60.408H730.192V53.904ZM740.296 55.848V58.488H742.24V55.848H740.296ZM737.92 53.904H744.736V60.408H737.92V53.904ZM725.944 43.464H746.464V45.984H728.752V65.16H725.944V43.464ZM727.768 61.608H747.112V64.2H727.768V61.608Z" fill="black"/>
<defs>
<filter id="filter0_d_1088_6859" x="58" y="0" width="1238" height="123" filterUnits="userSpaceOnUse" color-interpolation-filters="sRGB">
<feFlood flood-opacity="0" result="BackgroundImageFix"/>
<feColorMatrix in="SourceAlpha" type="matrix" values="0 0 0 0 0 0 0 0 0 0 0 0 0 0 0 0 0 0 127 0" result="hardAlpha"/>
<feOffset dy="10"/>
<feGaussianBlur stdDeviation="2"/>
<feComposite in2="hardAlpha" operator="out"/>
<feColorMatrix type="matrix" values="0 0 0 0 0 0 0 0 0 0 0 0 0 0 0 0 0 0 0.25 0"/>
<feBlend mode="normal" in2="BackgroundImageFix" result="effect1_dropShadow_1088_6859"/>
<feBlend mode="normal" in="SourceGraphic" in2="effect1_dropShadow_1088_6859" result="shape"/>
</filter>
<linearGradient id="paint0_linear_1088_6859" x1="615" y1="0" x2="615" y2="109" gradientUnits="userSpaceOnUse">
<stop stop-color="#1A5400"/>
<stop offset="0.470079" stop-color="#297E00"/>
<stop offset="1" stop-color="#184E00"/>
</linearGradient>
<linearGradient id="paint1_linear_1088_6859" x1="460.436" y1="63.9256" x2="911.379" y2="56.3027" gradientUnits="userSpaceOnUse">
<stop stop-color="#FFF0D0"/>
<stop offset="1" stop-color="#FFF0D0" stop-opacity="0.72"/>
</linearGradient>
<linearGradient id="paint2_linear_1088_6859" x1="33.5" y1="19.5" x2="38.0813" y2="86.989" gradientUnits="userSpaceOnUse">
<stop stop-color="#C1932C"/>
<stop offset="0.424286" stop-color="#CEAA39"/>
<stop offset="1" stop-color="#C19229"/>
</linearGradient>
<linearGradient id="paint3_linear_1088_6859" x1="1292.74" y1="0" x2="1292.74" y2="111" gradientUnits="userSpaceOnUse">
<stop stop-color="#C4992F"/>
<stop offset="0.490079" stop-color="#CEAA39"/>
<stop offset="1" stop-color="#C49733"/>
</linearGradient>
<linearGradient id="paint4_linear_1088_6859" x1="1334.65" y1="18" x2="1334.65" y2="92.892" gradientUnits="userSpaceOnUse">
<stop stop-color="#C4992F"/>
<stop offset="0.490079" stop-color="#CEAA39"/>
<stop offset="1" stop-color="#C49733"/>
</linearGradient>
<clipPath id="clip0_1088_6859">
<rect x="448" y="25" width="456" height="60" rx="27" fill="white"/>
</clipPath>
</defs>
</svg>
